<svg height="137" viewBox="0 0 137 137" width="137" xmlns="http://www.w3.org/2000/svg"><g fill="none" transform="translate(5 20)"><path d="m38.7 52c.6-.2 1.1-.4 1.7-.6.1 0 .2-.1.3-.1.6-.2 1.1-.5 1.6-.7.1-.1.2-.1.3-.2.5-.3 1-.5 1.5-.8 0 0 .1-.1.1-.1.5-.3 1-.6 1.5-1 .1-.1.2-.1.3-.2.5-.3 1-.7 1.4-1.1.1-.1.1-.1.2-.2.4-.4.8-.7 1.2-1.1.1-.1.1-.1.2-.2.4-.4.8-.8 1.2-1.3.1-.1.2-.2.2-.3.4-.5.8-.9 1.1-1.4.4-.5.7-1 1-1.5.1-.1.1-.2.2-.3.3-.5.6-1 .9-1.5.1-.1.1-.2.2-.3.3-.5.5-1 .7-1.5 0-.1.1-.1.1-.2.2-.6.5-1.1.7-1.7 0-.1.1-.2.1-.4.2-.6.4-1.2.5-1.8 0-.1 0-.2.1-.2.1-.6.3-1.1.4-1.7 0-.1 0-.2.1-.3.1-.6.2-1.2.2-1.9 0-.1 0-.3 0-.4 0-.6.1-1.3.1-2 0-.5 0-.9 0-1.3 0-.2 0-.3 0-.5 0-.3 0-.6-.1-.9 0-.2 0-.3-.1-.5 0-.3-.1-.5-.1-.8 0-.2-.1-.4-.1-.6s-.1-.5-.1-.7-.1-.4-.1-.6c-.1-.2-.1-.5-.2-.7 0-.2-.1-.4-.2-.6s-.1-.5-.2-.7-.1-.4-.2-.6-.1-.4-.2-.6-.1-.4-.2-.6-.2-.4-.3-.6-.2-.4-.2-.5c-.1-.2-.2-.4-.3-.6s-.2-.4-.3-.5c-.1-.2-.2-.4-.3-.6s-.2-.3-.3-.5-.2-.4-.3-.6-.2-.3-.3-.5-.2-.4-.4-.6c-.1-.2-.2-.3-.3-.5s-.3-.4-.4-.5c-.1-.2-.2-.3-.4-.5-.1-.2-.3-.4-.4-.5s-.3-.3-.4-.4c-.1-.2-.3-.3-.4-.5-.1-.1-.3-.3-.4-.4-.2-.2-.3-.3-.5-.5-.1-.1-.3-.3-.4-.4-.2-.2-.3-.3-.5-.5-.1-.1-.3-.2-.4-.4-.2-.2-.3-.3-.5-.5-.1-.1-.3-.2-.4-.4-.2-.1-.4-.3-.5-.4s-.3-.2-.5-.3-.4-.3-.6-.4-.3-.2-.5-.3-.4-.3-.6-.4-.3-.2-.5-.3-.4-.2-.6-.4c-.2-.1-.3-.2-.5-.2-.2-.1-.4-.2-.7-.3-.2-.1-.3-.1-.5-.2s-.4-.2-.7-.3c-.2-.1-.3-.1-.5-.2s-.5-.2-.7-.3-.3-.1-.5-.2-.5-.2-.7-.2c-.2-.1-.3-.1-.5-.1-.2-.1-.5-.1-.8-.2-.2 0-.3-.1-.5-.1-.3-.1-.5-.1-.8-.2-.2 0-.3-.1-.5-.1-.3 0-.5-.1-.8-.1-.2 0-.3 0-.5-.1-.3 0-.5-.1-.8-.1-.2 0-.3 0-.5 0-.3 0-.6 0-.8-.1-.2 0-.3 0-.5 0s-.5 0-.7 0h-15.6-13.1l35 93.2h17.5zm-7.9-33.7c4.8 0 8.8 3.9 8.8 8.7v.8.3c0 .2 0 .4-.1.6 0 .1 0 .2-.1.3 0 .2-.1.3-.1.5 0 .1-.1.2-.1.3-.1.2-.1.3-.2.5 0 .1-.1.2-.1.3-.1.1-.1.3-.2.4 0 .1-.1.2-.1.3-.1.1-.2.3-.3.4s-.1.2-.2.2c-.1.2-.2.3-.4.5 0 0-.1.1-.1.1-.2.2-.3.4-.5.6-.1.1-.1.1-.2.1-.1.1-.3.3-.4.4s-.2.1-.2.2c-.1.1-.3.2-.4.3s-.2.1-.3.2-.3.2-.4.2c-.1.1-.2.1-.3.2s-.3.1-.4.2c-.1 0-.2.1-.3.1-.2.1-.3.1-.5.2-.1 0-.2.1-.3.1-.2.1-.4.1-.6.1-.1 0-.2 0-.2.1l-6.5-17.3h4.7z" fill="#a53923"/><path d="m71.9 53.3h-17.5l-17.5 40.7h17.5z" fill="#097c79"/><path d="m54.4 53.3h17.5l17.7 40.8h-17.5z" fill="#2faaa1"/><path d="m124.7.8h-17.5l-35.1 93.2h17.5z" fill="#097c79"/><path d="m.5 53.3h17.5v40.9h-17.5z" fill="#a53923"/></g></svg>