<svg width="137" height="137" viewBox="0 0 137 137" xmlns="http://www.w3.org/2000/svg"><title>Slice</title><g fill-rule="nonzero" fill="none"><path d="M43.7 72c.6-.2 1.1-.4 1.7-.6.1 0 .2-.1.3-.1.6-.2 1.1-.5 1.6-.7.1-.1.2-.1.3-.2.5-.3 1-.5 1.5-.8l.1-.1c.5-.3 1-.6 1.5-1 .1-.1.2-.1.3-.2.5-.3 1-.7 1.4-1.1l.2-.2c.4-.4.8-.7 1.2-1.1l.2-.2c.4-.4.8-.8 1.2-1.3.1-.1.2-.2.2-.3.4-.5.8-.9 1.1-1.4.4-.5.7-1 1-1.5.1-.1.1-.2.2-.3l.9-1.5c.1-.1.1-.2.2-.3.3-.5.5-1 .7-1.5 0-.1.1-.1.1-.2.2-.6.5-1.1.7-1.7 0-.1.1-.2.1-.4.2-.6.4-1.2.5-1.8 0-.1 0-.2.1-.2.1-.6.3-1.1.4-1.7 0-.1 0-.2.1-.3.1-.6.2-1.2.2-1.9V49c0-.6.1-1.3.1-2v-1.3-.5c0-.3 0-.6-.1-.9 0-.2 0-.3-.1-.5 0-.3-.1-.5-.1-.8 0-.2-.1-.4-.1-.6 0-.2-.1-.5-.1-.7 0-.2-.1-.4-.1-.6-.1-.2-.1-.5-.2-.7 0-.2-.1-.4-.2-.6-.1-.2-.1-.5-.2-.7-.1-.2-.1-.4-.2-.6-.1-.2-.1-.4-.2-.6-.1-.2-.1-.4-.2-.6l-.3-.6c-.1-.2-.2-.4-.2-.5l-.3-.6c-.1-.2-.2-.4-.3-.5l-.3-.6c-.1-.2-.2-.3-.3-.5l-.3-.6c-.1-.2-.2-.3-.3-.5-.1-.2-.2-.4-.4-.6-.1-.2-.2-.3-.3-.5-.1-.2-.3-.4-.4-.5-.1-.2-.2-.3-.4-.5-.1-.2-.3-.4-.4-.5l-.4-.4c-.1-.2-.3-.3-.4-.5l-.4-.4a33172144127738.4 33172144127738.4 0 0 1-1.4-1.4c-.1-.1-.3-.2-.4-.4l-.5-.5c-.1-.1-.3-.2-.4-.4-.2-.1-.4-.3-.5-.4-.1-.1-.3-.2-.5-.3-.2-.1-.4-.3-.6-.4-.2-.1-.3-.2-.5-.3-.2-.1-.4-.3-.6-.4-.2-.1-.3-.2-.5-.3-.2-.1-.4-.2-.6-.4-.2-.1-.3-.2-.5-.2-.2-.1-.4-.2-.7-.3-.2-.1-.3-.1-.5-.2s-.4-.2-.7-.3c-.2-.1-.3-.1-.5-.2s-.5-.2-.7-.3c-.2-.1-.3-.1-.5-.2s-.5-.2-.7-.2c-.2-.1-.3-.1-.5-.1-.2-.1-.5-.1-.8-.2-.2 0-.3-.1-.5-.1-.3-.1-.5-.1-.8-.2-.2 0-.3-.1-.5-.1-.3 0-.5-.1-.8-.1-.2 0-.3 0-.5-.1-.3 0-.5-.1-.8-.1h-.5c-.3 0-.6 0-.8-.1H6.9l35 93.2h17.5L43.7 72zm-7.9-33.7c4.8 0 8.8 3.9 8.8 8.7v1.1c0 .2 0 .4-.1.6 0 .1 0 .2-.1.3 0 .2-.1.3-.1.5 0 .1-.1.2-.1.3-.1.2-.1.3-.2.5 0 .1-.1.2-.1.3-.1.1-.1.3-.2.4 0 .1-.1.2-.1.3-.1.1-.2.3-.3.4-.1.1-.1.2-.2.2-.1.2-.2.3-.4.5l-.1.1c-.2.2-.3.4-.5.6-.1.1-.1.1-.2.1l-.4.4c-.1.1-.2.1-.2.2-.1.1-.3.2-.4.3-.1.1-.2.1-.3.2-.1.1-.3.2-.4.2-.1.1-.2.1-.3.2-.1.1-.3.1-.4.2-.1 0-.2.1-.3.1-.2.1-.3.1-.5.2-.1 0-.2.1-.3.1-.2.1-.4.1-.6.1-.1 0-.2 0-.2.1l-6.5-17.3h4.7v.1z" fill="#A53923"/><path fill="#097C79" d="M76.9 73.3H59.4L41.9 114h17.5z"/><path fill="#2FAAA1" d="M59.4 73.3h17.5l17.7 40.8H77.1z"/><path fill="#097C79" d="M129.7 20.8h-17.5L77.1 114h17.5z"/><path fill="#A53923" d="M5.5 73.3H23v40.9H5.5z"/></g></svg>