<svg width="258" height="195" viewBox="0 0 258 195" xmlns="http://www.w3.org/2000/svg"><title>big_logo</title><g fill="none" fill-rule="evenodd"><path fill="#087C78" d="M34.5 48.8H.5l15 48.2-15 49.2h34z"/><path fill="#087C78" d="M223.9 48.8h34l-15 48.2 15 49.2h-34V48.8z"/><path fill="#E2DBCB" fill-rule="nonzero" d="M129.6 195l-88.5-48.8V48.8L129.6 0 218 48.8v97.5z"/><path fill="#DDD7CA" fill-rule="nonzero" d="M87.6 171.6l-46.5-73 43.3-73.7 82.9-4L218 92.6l-38.7 74.6z"/><path fill="#D8D2C5" fill-rule="nonzero" d="M66.3 138.3L62.8 62l64.7-39.1 64.2 32.4 5.3 77.9-62.8 36.1z"/><path fill="#D3CDC1" fill-rule="nonzero" d="M64.5 100.4l28.6-56.8 65.5-5.3 35.6 55.5-28 57.1-64.3 3.7z"/><path fill="#CEC8BE" fill-rule="nonzero" d="M79 71.8L125.4 41l50.7 24.8 3.9 57-44.5 29.9-52.4-25.3z"/><path fill="#C9C3BC" fill-rule="nonzero" d="M101.4 56.9l49.9-3.1L178 92.2l-21.4 46.4h-50.2l-25.2-38.2z"/><g fill-rule="nonzero" fill="#9B948E"><path d="M102.2 53.5c14.5 0 26.3 11.7 26.3 26.2s-11.8 26.2-26.3 26.2V88.4c4.8 0 8.8-3.9 8.8-8.7 0-4.8-3.9-8.7-8.8-8.7V53.5zm7.9 51.2l15.8 42h-17.5l-35-93.2H102.6c14.4.2 26 11.8 26 26.2-.1 11.8-7.8 21.7-18.5 25zm-6.2-16.4c4-.8 7.1-4.3 7.1-8.6 0-4.8-3.9-8.7-8.8-8.7h-4.8l6.5 17.3z"/><path d="M143.4 105.9h-17.5l-17.6 40.8h17.6z"/><path d="M125.9 105.9h17.5l17.7 40.9h-17.5z"/><path d="M196.2 53.5h-17.6l-35 93.2h17.5z"/><path d="M72 105.9h17.5v40.9H72z"/></g><g fill-rule="nonzero"><path d="M107.7 102c.6-.2 1.1-.4 1.7-.6.1 0 .2-.1.3-.1.6-.2 1.1-.5 1.6-.7.1-.1.2-.1.3-.2.5-.3 1-.5 1.5-.8l.1-.1c.5-.3 1-.6 1.5-1 .1-.1.2-.1.3-.2.5-.3 1-.7 1.4-1.1l.2-.2c.4-.4.8-.7 1.2-1.1l.2-.2c.4-.4.8-.8 1.2-1.3.1-.1.2-.2.2-.3.4-.5.8-.9 1.1-1.4.4-.5.7-1 1-1.5.1-.1.1-.2.2-.3l.9-1.5c.1-.1.1-.2.2-.3.3-.5.5-1 .7-1.5 0-.1.1-.1.1-.2.2-.6.5-1.1.7-1.7 0-.1.1-.2.1-.4.2-.6.4-1.2.5-1.8 0-.1 0-.2.1-.2.1-.6.3-1.1.4-1.7 0-.1 0-.2.1-.3.1-.6.2-1.2.2-1.9V79c0-.6.1-1.3.1-2v-1.3-.5c0-.3 0-.6-.1-.9 0-.2 0-.3-.1-.5 0-.3-.1-.5-.1-.8 0-.2-.1-.4-.1-.6 0-.2-.1-.5-.1-.7 0-.2-.1-.4-.1-.6-.1-.2-.1-.5-.2-.7 0-.2-.1-.4-.2-.6-.1-.2-.1-.5-.2-.7-.1-.2-.1-.4-.2-.6-.1-.2-.1-.4-.2-.6-.1-.2-.1-.4-.2-.6l-.3-.6c-.1-.2-.2-.4-.2-.5l-.3-.6c-.1-.2-.2-.4-.3-.5l-.3-.6c-.1-.2-.2-.3-.3-.5l-.3-.6c-.1-.2-.2-.3-.3-.5-.1-.2-.2-.4-.4-.6-.1-.2-.2-.3-.3-.5-.1-.2-.3-.4-.4-.5-.1-.2-.2-.3-.4-.5-.1-.2-.3-.4-.4-.5l-.4-.4c-.1-.2-.3-.3-.4-.5l-.4-.4a33172144127738.4 33172144127738.4 0 0 1-1.4-1.4c-.1-.1-.3-.2-.4-.4l-.5-.5c-.1-.1-.3-.2-.4-.4-.2-.1-.4-.3-.5-.4-.1-.1-.3-.2-.5-.3-.2-.1-.4-.3-.6-.4-.2-.1-.3-.2-.5-.3-.2-.1-.4-.3-.6-.4-.2-.1-.3-.2-.5-.3-.2-.1-.4-.2-.6-.4-.2-.1-.3-.2-.5-.2-.2-.1-.4-.2-.7-.3-.2-.1-.3-.1-.5-.2s-.4-.2-.7-.3c-.2-.1-.3-.1-.5-.2s-.5-.2-.7-.3c-.2-.1-.3-.1-.5-.2s-.5-.2-.7-.2c-.2-.1-.3-.1-.5-.1-.2-.1-.5-.1-.8-.2-.2 0-.3-.1-.5-.1-.3-.1-.5-.1-.8-.2-.2 0-.3-.1-.5-.1-.3 0-.5-.1-.8-.1-.2 0-.3 0-.5-.1-.3 0-.5-.1-.8-.1h-.5c-.3 0-.6 0-.8-.1H70.9l35 93.2h17.5l-15.7-42c0 .1 0 0 0 0zm-7.9-33.7c4.8 0 8.8 3.9 8.8 8.7v1.1c0 .2 0 .4-.1.6 0 .1 0 .2-.1.3 0 .2-.1.3-.1.5 0 .1-.1.2-.1.3-.1.2-.1.3-.2.5 0 .1-.1.2-.1.3-.1.1-.1.3-.2.4 0 .1-.1.2-.1.3-.1.1-.2.3-.3.4-.1.1-.1.2-.2.2-.1.2-.2.3-.4.5l-.1.1c-.2.2-.3.4-.5.6-.1.1-.1.1-.2.1l-.4.4c-.1.1-.2.1-.2.2-.1.1-.3.2-.4.3-.1.1-.2.1-.3.2-.1.1-.3.2-.4.2-.1.1-.2.1-.3.2-.1.1-.3.1-.4.2-.1 0-.2.1-.3.1-.2.1-.3.1-.5.2-.1 0-.2.1-.3.1-.2.1-.4.1-.6.1-.1 0-.2 0-.2.1L95 68.3h4.8z" fill="#A53719"/><path fill="#087C78" d="M140.9 103.3h-17.5L105.9 144h17.5z"/><path fill="#2DAAA1" d="M123.4 103.3h17.5l17.8 40.8h-17.6z"/><path fill="#087C78" d="M193.7 50.8h-17.5L141.1 144h17.6z"/><path fill="#A53719" d="M69.6 103.3h17.5v40.9H69.6z"/></g></g></svg>