<svg xmlns="http://www.w3.org/2000/svg" xmlns:xlink="http://www.w3.org/1999/xlink" width="260" height="200" viewBox="0 0 260 200"><path fill-rule="evenodd" clip-rule="evenodd" fill="#087C78" d="M35.142 50.49h-34l15 48.186-15 49.188h34.002z"/><path fill-rule="evenodd" clip-rule="evenodd" fill="#087C78" d="M224.544 50.49h34l-15 48.186 15 49.188h-34z"/><path fill="#D96F4F" d="M130.17 196.755L41.682 148V50.49L130.17 1.733l88.483 48.755V148z"/><path fill="#D46949" d="M88.22 173.33L41.684 100.3 84.99 26.627l82.888-4.035 50.775 71.792-38.73 74.594z"/><path fill="#CE6344" d="M66.906 140.076L63.37 63.76l64.708-39.106 64.182 32.413 5.307 77.927-62.82 36.128z"/><path fill="#C85D3D" d="M65.15 102.143l28.602-56.76 65.518-5.292 35.61 55.468-28.044 57.11-64.27 3.727z"/><path fill="#C45838" d="M79.58 73.507l46.466-30.732 50.7 24.78 3.92 56.95-44.484 29.94-52.395-25.278z"/><path fill="#C05435" d="M102.005 58.622l49.914-3.072 26.64 38.343-21.402 46.434h-50.24l-25.25-38.194z"/><path fill="#BC5031" d="M127.94 57.134l36.76 16.858 2.606 43.92-34.117 22.332-39.125-19.222-2.023-41.478z"/><path fill="#B94C2E" d="M148.397 66.55l17.777 29.916-14.588 31.913L114.35 131l-21.093-29.832L109 69.092z"/><path fill="#B6492B" d="M157.064 81.136l1.268 32.36-25.955 16.263-27.96-12.772-2.948-32.6 26.115-16.4z"/><path fill="#B34628" d="M157.885 96.782l-12.772 25.123-26.943 1.282-15.05-22.96 11.643-24.06 27.327-1.806z"/><path fill="#B24425" d="M150.824 110.637l-18.375 11.826-21.478-10.315-1.994-24.067 19.42-12.797 21.1 9.652z"/><path fill="#AF4123" d="M141.51 116.5l-21.383.01-10.5-16.335 8.5-18.333 20.833-1.495 10.958 16.29z"/><path fill="#AD3F21" d="M131.293 116.504l-16.458-8.162-.75-17.264 14.993-9.942 15.826 8.05.973 17.24z"/><path fill="#AC3E1F" d="M123.482 112.63l-9.028-13.076 6.53-13.05 16.07-1.31 8.342 12.694-6.554 13.4z"/><path fill="#A93C1D" d="M118.892 105.98l-1.083-13.13 11.282-7.008 12.105 5.657.717 13.507-10.582 6.937z"/><path fill="#A83A1C" d="M119.82 99.276l3.7-9.973 11.494-.695 6.507 8.985-5.045 10.98-11.18.478z"/><path fill="#A8391B" d="M121.47 94.83l7.49-5.856 9 3.7 1.104 10.264-8.227 5.876-8.022-4.192z"/><path fill="#A7381A" d="M124.964 92.097l8.45-1.29 4.822 6.432-3.127 7.553-8.07 1.395-4.94-6.162z"/><path fill="#A53719" d="M129.082 91.392l6.886 2.395.802 7.51-5.472 4.155-6.728-2.308-1.19-6.93z"/><defs><path id="SVGID_1_" d="M-96.647-349.904h595.28v841.89h-595.28z"/></defs><clipPath id="SVGID_2_"><use xlink:href="#SVGID_1_" overflow="visible"/></clipPath><path clip-path="url(#SVGID_2_)" fill="#902C10" d="M88.574 82.787v20.29H77.362V50.2H92.77c7.184 0 12.5 1.308 15.95 3.924 3.447 2.617 5.17 6.59 5.17 11.918 0 3.11-.855 5.877-2.567 8.3-1.712 2.423-4.136 4.32-7.27 5.694 7.958 11.89 13.14 19.568 15.552 23.04h-12.44L94.54 82.785h-5.968zm0-9.115h3.616c3.545 0 6.16-.59 7.85-1.77 1.686-1.183 2.53-3.04 2.53-5.57 0-2.51-.86-4.293-2.585-5.354-1.724-1.06-4.394-1.592-8.012-1.592h-3.4v14.286z"/><path clip-path="url(#SVGID_2_)" fill="#902C10" d="M177.764 103.076h-12.77l-7.16-27.775c-.265-.987-.717-3.03-1.355-6.13-.64-3.097-1.01-5.177-1.105-6.238-.144 1.302-.506 3.394-1.085 6.275-.578 2.88-1.023 4.936-1.338 6.167l-7.125 27.703h-12.73l-13.49-52.875h11.03l6.764 28.86c1.18 5.33 2.038 9.947 2.567 13.854.146-1.375.477-3.502.996-6.385.518-2.88 1.006-5.116 1.465-6.708l7.703-29.62h10.6l7.702 29.62c.338 1.326.76 3.352 1.267 6.076.504 2.727.89 5.064 1.156 7.018.24-1.88.627-4.227 1.156-7.035.53-2.808 1.014-5.08 1.446-6.817l6.728-28.86h11.03l-13.452 52.873z"/><path clip-path="url(#SVGID_2_)" fill="#E2DBCB" d="M86.723 80.008v20.29H75.51V47.423H90.92c7.185 0 12.502 1.308 15.95 3.924 3.448 2.617 5.172 6.59 5.172 11.918 0 3.11-.856 5.877-2.568 8.3-1.712 2.422-4.136 4.32-7.27 5.696 7.958 11.887 13.14 19.566 15.552 23.04h-12.44L92.69 80.007h-5.967zm0-9.113h3.616c3.544 0 6.16-.59 7.848-1.772 1.687-1.182 2.532-3.04 2.532-5.57 0-2.508-.862-4.292-2.586-5.353-1.724-1.06-4.394-1.592-8.012-1.592h-3.4v14.287z"/><path clip-path="url(#SVGID_2_)" fill="#E2DBCB" d="M175.912 100.3h-12.768l-7.16-27.777c-.266-.988-.718-3.032-1.357-6.13-.64-3.098-1.006-5.178-1.104-6.24-.145 1.303-.506 3.395-1.085 6.276-.577 2.88-1.024 4.936-1.338 6.165l-7.125 27.705h-12.73l-13.49-52.876h11.03l6.764 28.86c1.18 5.33 2.035 9.946 2.566 13.853.145-1.373.476-3.502.994-6.383.518-2.88 1.006-5.117 1.465-6.71l7.703-29.62h10.598l7.703 29.62c.337 1.327.76 3.353 1.267 6.077.505 2.726.89 5.063 1.156 7.017.24-1.88.628-4.225 1.158-7.033.53-2.81 1.014-5.082 1.446-6.818l6.73-28.86h11.03l-13.454 52.873z"/><path clip-path="url(#SVGID_2_)" fill="#ED8A6C" d="M104.313 124.223c0 4.14-1.356 7.314-4.07 9.52-2.71 2.207-6.572 3.31-11.58 3.31H84.54v14.84h-6.483v-39.66h11.42c4.955 0 8.667 1.013 11.134 3.038 2.47 2.025 3.703 5.01 3.703 8.953M84.54 131.6h3.444c3.327 0 5.77-.578 7.325-1.736 1.553-1.156 2.332-2.965 2.332-5.424 0-2.28-.697-3.98-2.09-5.1-1.392-1.12-3.562-1.682-6.51-1.682H84.54V131.6z"/><path clip-path="url(#SVGID_2_)" fill="#ED8A6C" d="M147.443 132.008c0 6.455-1.613 11.473-4.84 15.055-3.23 3.58-7.8 5.37-13.713 5.37-5.987 0-10.584-1.776-13.794-5.33-3.21-3.554-4.815-8.603-4.815-15.15s1.616-11.573 4.843-15.08c3.23-3.51 7.835-5.265 13.82-5.265 5.897 0 10.454 1.78 13.672 5.344 3.22 3.564 4.828 8.58 4.828 15.056m-30.272 0c0 4.88.986 8.584 2.958 11.107 1.97 2.52 4.892 3.783 8.762 3.783 3.85 0 6.76-1.248 8.72-3.742 1.962-2.496 2.944-6.21 2.944-11.148 0-4.865-.973-8.555-2.916-11.068-1.945-2.514-4.842-3.77-8.694-3.77-3.888 0-6.822 1.256-8.802 3.77-1.98 2.513-2.97 6.203-2.97 11.068"/><path clip-path="url(#SVGID_2_)" fill="#ED8A6C" d="M188.215 131.682c0 6.547-1.817 11.55-5.453 15.014-3.635 3.463-8.87 5.195-15.705 5.195H155.96v-39.657h12.263c6.31 0 11.22 1.7 14.73 5.1 3.506 3.4 5.262 8.183 5.262 14.35m-6.836.215c0-9.494-4.44-14.24-13.32-14.24h-5.615v28.78h4.612c9.547 0 14.322-4.846 14.322-14.54"/><path clip-path="url(#SVGID_2_)" fill="#932A12" d="M102.462 122.37c0 4.142-1.356 7.315-4.07 9.522-2.71 2.207-6.572 3.31-11.58 3.31h-4.124v14.837h-6.483v-39.66h11.42c4.955 0 8.667 1.015 11.134 3.04 2.468 2.025 3.702 5.01 3.702 8.95m-19.774 7.38h3.444c3.327 0 5.77-.58 7.325-1.736 1.554-1.158 2.333-2.967 2.333-5.426 0-2.277-.697-3.98-2.09-5.1-1.392-1.12-3.562-1.682-6.51-1.682H82.69v13.944z"/><path clip-path="url(#SVGID_2_)" fill="#932A12" d="M145.592 130.156c0 6.455-1.613 11.475-4.84 15.055s-7.8 5.372-13.713 5.372c-5.988 0-10.585-1.777-13.795-5.33s-4.815-8.604-4.815-15.15c0-6.545 1.615-11.572 4.842-15.082 3.23-3.508 7.835-5.262 13.82-5.262 5.897 0 10.454 1.78 13.672 5.344 3.218 3.562 4.828 8.58 4.828 15.054m-30.272 0c0 4.883.985 8.586 2.957 11.107 1.97 2.523 4.892 3.785 8.762 3.785 3.85 0 6.758-1.248 8.72-3.744 1.96-2.496 2.943-6.21 2.943-11.148 0-4.865-.973-8.553-2.916-11.066-1.945-2.514-4.842-3.77-8.694-3.77-3.888 0-6.822 1.257-8.802 3.77-1.98 2.514-2.97 6.2-2.97 11.066"/><path clip-path="url(#SVGID_2_)" fill="#932A12" d="M186.363 129.83c0 6.547-1.817 11.553-5.453 15.016-3.635 3.463-8.87 5.193-15.705 5.193H154.11v-39.66h12.26c6.312 0 11.22 1.702 14.73 5.1 3.507 3.4 5.263 8.184 5.263 14.35m-6.836.217c0-9.492-4.44-14.24-13.32-14.24h-5.614v28.78h4.612c9.548 0 14.322-4.847 14.322-14.54"/></svg>