<svg viewBox="0 0 258 195" xmlns="http://www.w3.org/2000/svg"><g fill="none" fill-rule="evenodd"><path d="m34.5 48.8h-34l15 48.2-15 49.2h34z" fill="#087c78"/><path d="m223.9 48.8h34l-15 48.2 15 49.2h-34z" fill="#087c78"/><g fill-rule="nonzero"><path d="m129.6 195-88.5-48.8v-97.4l88.5-48.8 88.4 48.8v97.5z" fill="#e2dbcb"/><path d="m87.6 171.6-46.5-73 43.3-73.7 82.9-4 50.7 71.7-38.7 74.6z" fill="#ddd7ca"/><path d="m66.3 138.3-3.5-76.3 64.7-39.1 64.2 32.4 5.3 77.9-62.8 36.1z" fill="#d8d2c5"/><path d="m64.5 100.4 28.6-56.8 65.5-5.3 35.6 55.5-28 57.1-64.3 3.7z" fill="#d3cdc1"/><path d="m79 71.8 46.4-30.8 50.7 24.8 3.9 57-44.5 29.9-52.4-25.3z" fill="#cec8be"/><path d="m101.4 56.9 49.9-3.1 26.7 38.4-21.4 46.4h-50.2l-25.2-38.2z" fill="#c9c3bc"/></g><g transform="translate(72 53)"><path d="m38.1 51.7 15.8 42h-17.5l-35-93.2h13.1 16.1c14.4.2 26 11.8 26 26.2-.1 11.8-7.8 21.7-18.5 25z" fill="#9b948e"/><path d="m31.9 35.3c4-.8 7.1-4.3 7.1-8.6 0-4.8-3.9-8.7-8.8-8.7h-4.8z" fill="#c9c3bc" fill-rule="nonzero"/><g fill="#9b948e"><path d="m30.2.5c14.5 0 26.3 11.7 26.3 26.2s-11.8 26.2-26.3 26.2v-17.5c4.8 0 8.8-3.9 8.8-8.7s-3.9-8.7-8.8-8.7z"/><path d="m71.4 52.9h-17.5l-17.6 40.8h17.6z" fill-rule="nonzero"/><path d="m53.9 52.9h17.5l17.7 40.9h-17.5z" fill-rule="nonzero"/><path d="m124.2.5h-17.6l-35 93.2h17.5z" fill-rule="nonzero"/><path d="m0 52.9h17.5v40.9h-17.5z" fill-rule="nonzero"/></g></g><g fill-rule="nonzero" transform="translate(69 50)"><path d="m38.7 52c.6-.2 1.1-.4 1.7-.6.1 0 .2-.1.3-.1.6-.2 1.1-.5 1.6-.7.1-.1.2-.1.3-.2.5-.3 1-.5 1.5-.8 0 0 .1-.1.1-.1.5-.3 1-.6 1.5-1 .1-.1.2-.1.3-.2.5-.3 1-.7 1.4-1.1.1-.1.1-.1.2-.2.4-.4.8-.7 1.2-1.1.1-.1.1-.1.2-.2.4-.4.8-.8 1.2-1.3.1-.1.2-.2.2-.3.4-.5.8-.9 1.1-1.4.4-.5.7-1 1-1.5.1-.1.1-.2.2-.3.3-.5.6-1 .9-1.5.1-.1.1-.2.2-.3.3-.5.5-1 .7-1.5 0-.1.1-.1.1-.2.2-.6.5-1.1.7-1.7 0-.1.1-.2.1-.4.2-.6.4-1.2.5-1.8 0-.1 0-.2.1-.2.1-.6.3-1.1.4-1.7 0-.1 0-.2.1-.3.1-.6.2-1.2.2-1.9 0-.1 0-.3 0-.4 0-.6.1-1.3.1-2 0-.5 0-.9 0-1.3 0-.2 0-.3 0-.5 0-.3 0-.6-.1-.9 0-.2 0-.3-.1-.5 0-.3-.1-.5-.1-.8 0-.2-.1-.4-.1-.6s-.1-.5-.1-.7-.1-.4-.1-.6c-.1-.2-.1-.5-.2-.7 0-.2-.1-.4-.2-.6s-.1-.5-.2-.7-.1-.4-.2-.6-.1-.4-.2-.6-.1-.4-.2-.6-.2-.4-.3-.6-.2-.4-.2-.5c-.1-.2-.2-.4-.3-.6s-.2-.4-.3-.5c-.1-.2-.2-.4-.3-.6s-.2-.3-.3-.5-.2-.4-.3-.6-.2-.3-.3-.5-.2-.4-.4-.6c-.1-.2-.2-.3-.3-.5s-.3-.4-.4-.5c-.1-.2-.2-.3-.4-.5-.1-.2-.3-.4-.4-.5s-.3-.3-.4-.4c-.1-.2-.3-.3-.4-.5-.1-.1-.3-.3-.4-.4-.2-.2-.3-.3-.5-.5-.1-.1-.3-.3-.4-.4-.2-.2-.3-.3-.5-.5-.1-.1-.3-.2-.4-.4-.2-.2-.3-.3-.5-.5-.1-.1-.3-.2-.4-.4-.2-.1-.4-.3-.5-.4s-.3-.2-.5-.3-.4-.3-.6-.4-.3-.2-.5-.3-.4-.3-.6-.4-.3-.2-.5-.3-.4-.2-.6-.4c-.2-.1-.3-.2-.5-.2-.2-.1-.4-.2-.7-.3-.2-.1-.3-.1-.5-.2s-.4-.2-.7-.3c-.2-.1-.3-.1-.5-.2s-.5-.2-.7-.3-.3-.1-.5-.2-.5-.2-.7-.2c-.2-.1-.3-.1-.5-.1-.2-.1-.5-.1-.8-.2-.2 0-.3-.1-.5-.1-.3-.1-.5-.1-.8-.2-.2 0-.3-.1-.5-.1-.3 0-.5-.1-.8-.1-.2 0-.3 0-.5-.1-.3 0-.5-.1-.8-.1-.2 0-.3 0-.5 0-.3 0-.6 0-.8-.1-.2 0-.3 0-.5 0s-.5 0-.7 0h-15.6-13.1l35 93.2h17.5zm-7.9-33.7c4.8 0 8.8 3.9 8.8 8.7v.8.3c0 .2 0 .4-.1.6 0 .1 0 .2-.1.3 0 .2-.1.3-.1.5 0 .1-.1.2-.1.3-.1.2-.1.3-.2.5 0 .1-.1.2-.1.3-.1.1-.1.3-.2.4 0 .1-.1.2-.1.3-.1.1-.2.3-.3.4s-.1.2-.2.2c-.1.2-.2.3-.4.5 0 0-.1.1-.1.1-.2.2-.3.4-.5.6-.1.1-.1.1-.2.1-.1.1-.3.3-.4.4s-.2.1-.2.2c-.1.1-.3.2-.4.3s-.2.1-.3.2-.3.2-.4.2c-.1.1-.2.1-.3.2s-.3.1-.4.2c-.1 0-.2.1-.3.1-.2.1-.3.1-.5.2-.1 0-.2.1-.3.1-.2.1-.4.1-.6.1-.1 0-.2 0-.2.1l-6.6-17.2z" fill="#a53719"/><path d="m71.9 53.3h-17.5l-17.5 40.7h17.5z" fill="#087c78"/><path d="m54.4 53.3h17.5l17.8 40.8h-17.6z" fill="#2daaa1"/><path d="m124.7.8h-17.5l-35.1 93.2h17.6z" fill="#087c78"/><path d="m.6 53.3h17.5v40.9h-17.5z" fill="#a53719"/></g></g></svg>
